SplineFontDB: 3.0
FontName: FifteenTwenty-LightOblique
FullName: FifteenTwenty Light Oblique
FamilyName: FifteenTwenty
Weight: Light
Copyright: FifteenTwenty Light Oblique\nMade in 2016 by Stewart C. Russell - scruss.com\nLicence: Dual-licensed CC0/WTFPL (srsly)\n\n
UComments: "Derived from character stroke coordinates from the Commodore 1520 plotter ROM. This has been documented here - http://e4aws.silverdr.com/hacks/6500_1/ - and here - https://github.com/Project-64/reloaded/tree/master/1520/rom+AAoACgAA-This font contains none of the original Commodore coordinates, as they were in a format unusable with current computer systems.+AAoACgAA-Coverage: ASCII."
Version: 001.000
ItalicAngle: -9.462
UnderlinePosition: -100
UnderlineWidth: 50
Ascent: 800
Descent: 200
InvalidEm: 0
LayerCount: 2
Layer: 0 0 "Back" 1
Layer: 1 0 "Fore" 0
XUID: [1021 803 1264474343 2667122]
FSType: 0
OS2Version: 0
OS2_WeightWidthSlopeOnly: 0
OS2_UseTypoMetrics: 1
CreationTime: 1462802501
ModificationTime: 1462803029
PfmFamily: 17
TTFWeight: 300
TTFWidth: 5
LineGap: 90
VLineGap: 0
OS2TypoAscent: 0
OS2TypoAOffset: 1
OS2TypoDescent: 0
OS2TypoDOffset: 1
OS2TypoLinegap: 90
OS2WinAscent: 0
OS2WinAOffset: 1
OS2WinDescent: 0
OS2WinDOffset: 1
HheadAscent: 0
HheadAOffset: 1
HheadDescent: 0
HheadDOffset: 1
OS2Vendor: 'PfEd'
MarkAttachClasses: 1
DEI: 91125
Encoding: UnicodeFull
Compacted: 1
UnicodeInterp: none
NameList: AGL For New Fonts
DisplaySize: -48
AntiAlias: 1
FitToEm: 1
WinInfo: 0 17 10
BeginPrivate: 0
EndPrivate
BeginChars: 1114112 103

StartChar: exclam
Encoding: 33 33 0
Width: 576
VWidth: 186
Flags: W
HStem: 200 14<203 283> 293 14<216 296> 386 14<234 314> 758 14<293 373>
LayerCount: 2
Back
Fore
SplineSet
290 772 m 0
 382 772 l 2
 386 772 390 769 389 765 c 2
 327 393 l 2
 326 389 321 386 317 386 c 2
 225 386 l 2
 223 386 221 387 220 388 c 0
 219 389 219 391 219 393 c 0
 219 394 l 2
 281 765 l 2
 282 769 286 772 290 772 c 0
293 758 m 1
 234 400 l 1
 314 400 l 1
 373 758 l 1
 293 758 l 1
212 307 m 0
 304 307 l 2
 308 307 312 304 311 300 c 2
 296 207 l 2
 295 203 290 200 286 200 c 2
 194 200 l 2
 192 200 190 201 189 202 c 0
 188 203 188 205 188 207 c 0
 188 208 l 2
 203 300 l 2
 204 304 208 307 212 307 c 0
216 293 m 1
 203 214 l 1
 283 214 l 1
 296 293 l 1
 216 293 l 1
EndSplineSet
EndChar

StartChar: quotedbl
Encoding: 34 34 1
Width: 576
VWidth: 186
Flags: W
HStem: 665 107<193.5 196.5 379.5 382.5>
VStem: 180 216
LayerCount: 2
Back
Fore
SplineSet
204 772 m 0
 208 772 211 769 210 765 c 0
 194 672 l 2
 193 668 190 665 186 665 c 0
 182 665 179 668 180 672 c 0
 196 765 l 2
 197 769 200 772 204 772 c 0
390 772 m 0
 394 772 397 769 396 765 c 0
 380 672 l 2
 379 668 376 665 372 665 c 0
 368 665 365 668 366 672 c 0
 382 765 l 2
 383 769 386 772 390 772 c 0
EndSplineSet
EndChar

StartChar: numbersign
Encoding: 35 35 2
Width: 576
VWidth: 186
Flags: W
HStem: 386 14<80.0483 171 188 357 374 465.951> 572 14<110.049 202 219 388 405 495.952>
LayerCount: 2
Back
Fore
SplineSet
227 679 m 0
 231 679 234 676 233 672 c 0
 219 586 l 1
 391 586 l 1
 405 672 l 2
 406 676 409 679 413 679 c 0
 417 679 420 676 419 672 c 0
 405 586 l 1
 491 586 l 2
 495 586 497 583 496 579 c 0
 495 575 492 572 488 572 c 0
 402 572 l 1
 374 400 l 1
 460 400 l 2
 464 400 467 397 466 393 c 0
 465 389 461 386 457 386 c 0
 371 386 l 1
 357 300 l 2
 356 296 353 293 349 293 c 0
 345 293 342 296 343 300 c 0
 357 386 l 1
 185 386 l 1
 171 300 l 2
 170 296 167 293 163 293 c 0
 159 293 156 296 157 300 c 0
 171 386 l 1
 85 386 l 2
 81 386 79 389 80 393 c 0
 81 397 84 400 88 400 c 0
 174 400 l 1
 202 572 l 1
 116 572 l 2
 112 572 109 575 110 579 c 0
 111 583 115 586 119 586 c 0
 205 586 l 1
 219 672 l 2
 220 676 223 679 227 679 c 0
216 572 m 1
 188 400 l 1
 360 400 l 1
 388 572 l 1
 216 572 l 1
EndSplineSet
EndChar

StartChar: dollar
Encoding: 36 36 3
Width: 576
VWidth: 186
Flags: W
HStem: 200 21G<238 242> 293 14<157.048 249 265 348> 479 14<199 280 296 377> 665 14<228 311 327 418.952> 752 20G<334 338>
LayerCount: 2
Back
Fore
SplineSet
336 772 m 0
 340 772 342 769 341 765 c 0
 327 679 l 1
 413 679 l 2
 417 679 420 676 419 672 c 0
 418 668 415 665 411 665 c 0
 325 665 l 1
 296 493 l 1
 382 493 l 2
 384 493 386 492 387 491 c 2
 464 398 l 2
 465 397 466 395 466 393 c 0
 466 391 464 389 463 388 c 2
 354 295 l 2
 353 294 351 293 349 293 c 2
 263 293 l 1
 249 207 l 2
 248 203 244 200 240 200 c 0
 236 200 234 203 235 207 c 0
 249 293 l 1
 163 293 l 2
 159 293 156 296 157 300 c 0
 158 304 161 307 165 307 c 0
 251 307 l 1
 280 479 l 1
 194 479 l 2
 192 479 190 480 189 481 c 2
 112 574 l 2
 111 575 110 577 110 579 c 0
 110 581 112 583 113 584 c 2
 222 677 l 2
 223 678 225 679 227 679 c 0
 313 679 l 1
 327 765 l 2
 328 769 332 772 336 772 c 0
228 665 m 1
 128 579 l 1
 199 493 l 1
 282 493 l 1
 311 665 l 1
 228 665 l 1
294 479 m 1
 265 307 l 1
 348 307 l 1
 449 393 l 1
 377 479 l 1
 294 479 l 1
EndSplineSet
EndChar

StartChar: percent
Encoding: 37 37 4
Width: 576
VWidth: 186
Flags: W
HStem: 293 14<358 437> 386 14<371 450> 572 14<126 205> 665 14<139 218>
LayerCount: 2
Back
Fore
SplineSet
227 679 m 0
 229 679 231 678 232 677 c 0
 233 676 233 674 233 672 c 0
 233 671 l 2
 218 579 l 2
 217 575 213 572 209 572 c 2
 116 572 l 2
 112 572 109 575 110 579 c 2
 126 672 l 2
 127 676 130 679 134 679 c 2
 226 679 l 2
 227 679 l 0
506 679 m 0
 510 679 513 676 512 672 c 0
 512 670 510 668 509 667 c 2
 75 295 l 2
 74 294 72 293 70 293 c 0
 66 293 63 296 64 300 c 0
 64 302 66 304 67 305 c 2
 501 677 l 2
 502 678 504 679 506 679 c 0
139 665 m 1
 126 586 l 1
 205 586 l 1
 218 665 l 1
 139 665 l 1
367 400 m 0
 368 400 l 2
 460 400 l 2
 464 400 467 397 466 393 c 2
 450 300 l 2
 449 296 446 293 442 293 c 2
 349 293 l 2
 345 293 342 296 343 300 c 2
 358 392 l 2
 359 393 l 0
 359 395 360 397 361 398 c 0
 362 399 365 400 367 400 c 0
371 386 m 1
 358 307 l 1
 437 307 l 1
 450 386 l 1
 371 386 l 1
EndSplineSet
EndChar

StartChar: ampersand
Encoding: 38 38 5
Width: 576
VWidth: 186
Flags: W
HStem: 200 14<176 263> 752 20G<265 267>
LayerCount: 2
Back
Fore
SplineSet
266 772 m 0
 268 772 270 771 271 770 c 2
 348 677 l 2
 349 676 349 674 349 672 c 2
 334 579 l 2
 334 577 332 575 331 574 c 2
 228 486 l 1
 375 310 l 1
 478 398 l 2
 479 399 481 400 483 400 c 0
 487 400 490 397 489 393 c 0
 489 391 487 389 486 388 c 2
 383 300 l 1
 457 212 l 2
 458 211 458 209 458 207 c 0
 457 203 454 200 450 200 c 0
 448 200 446 201 445 202 c 2
 372 290 l 1
 269 202 l 2
 268 201 266 200 264 200 c 0
 171 200 l 2
 169 200 167 201 166 202 c 2
 88 295 l 2
 87 296 87 298 87 300 c 2
 103 393 l 2
 103 395 105 397 106 398 c 2
 208 486 l 1
 135 574 l 2
 134 575 134 577 134 579 c 2
 149 672 l 2
 149 674 151 676 152 677 c 2
 261 770 l 2
 262 771 264 772 266 772 c 0
263 755 m 1
 163 669 l 1
 148 582 l 1
 220 496 l 1
 320 582 l 1
 335 669 l 1
 263 755 l 1
217 476 m 1
 116 390 l 1
 102 303 l 1
 176 214 l 1
 263 214 l 1
 363 300 l 1
 217 476 l 1
EndSplineSet
EndChar

StartChar: quotesingle
Encoding: 39 39 6
Width: 576
VWidth: 186
Flags: W
HStem: 572 200
VStem: 266 44
LayerCount: 2
Back
Fore
SplineSet
305 772 m 0
 309 772 311 769 310 765 c 0
 280 579 l 2
 279 575 275 572 271 572 c 0
 267 572 265 575 266 579 c 0
 296 765 l 2
 297 769 301 772 305 772 c 0
EndSplineSet
EndChar

StartChar: parenleft
Encoding: 40 40 7
Width: 576
VWidth: 186
Flags: W
HStem: 200 14<238 333.952> 758 14<329 426.952>
VStem: 150 277
LayerCount: 2
Back
Fore
SplineSet
328 772 m 0
 421 772 l 2
 425 772 428 769 427 765 c 0
 426 761 423 758 419 758 c 0
 329 758 l 1
 225 669 l 1
 164 303 l 1
 238 214 l 1
 328 214 l 2
 332 214 335 211 334 207 c 0
 333 203 330 200 326 200 c 0
 233 200 l 2
 231 200 229 201 228 202 c 2
 150 295 l 2
 149 296 149 298 149 300 c 0
 211 672 l 2
 211 674 213 676 214 677 c 2
 323 770 l 2
 324 771 326 772 328 772 c 0
EndSplineSet
EndChar

StartChar: parenright
Encoding: 41 41 8
Width: 576
VWidth: 186
Flags: W
HStem: 200 14<149.048 247> 758 14<242.048 338>
VStem: 149 277
LayerCount: 2
Back
Fore
SplineSet
250 772 m 0
 343 772 l 2
 345 772 347 771 348 770 c 2
 426 677 l 2
 427 676 427 674 427 672 c 2
 365 300 l 2
 365 298 363 296 362 295 c 2
 253 202 l 2
 252 201 250 200 248 200 c 0
 155 200 l 2
 151 200 148 203 149 207 c 0
 150 211 153 214 157 214 c 0
 247 214 l 1
 351 303 l 1
 412 669 l 1
 338 758 l 1
 248 758 l 2
 244 758 241 761 242 765 c 0
 243 769 246 772 250 772 c 0
EndSplineSet
EndChar

StartChar: asterisk
Encoding: 42 42 9
Width: 576
VWidth: 186
Flags: W
LayerCount: 2
Back
Fore
SplineSet
320 679 m 0
 324 679 327 676 326 672 c 0
 298 503 l 1
 501 677 l 2
 502 678 504 679 506 679 c 0
 510 679 513 676 512 672 c 0
 512 670 510 668 509 667 c 2
 298 486 l 1
 449 305 l 2
 450 304 450 302 450 300 c 0
 449 296 446 293 442 293 c 0
 440 293 438 294 437 295 c 2
 292 469 l 1
 264 300 l 2
 263 296 260 293 256 293 c 0
 252 293 249 296 250 300 c 0
 278 469 l 1
 75 295 l 2
 74 294 72 293 70 293 c 0
 66 293 63 296 64 300 c 0
 64 302 66 304 67 305 c 2
 278 486 l 1
 127 667 l 2
 126 668 126 670 126 672 c 0
 127 676 130 679 134 679 c 0
 136 679 138 678 139 677 c 2
 284 503 l 1
 312 672 l 2
 313 676 316 679 320 679 c 0
EndSplineSet
EndChar

StartChar: plus
Encoding: 43 43 10
Width: 576
VWidth: 186
Flags: W
HStem: 479 14<95.0483 280 296 480.952>
LayerCount: 2
Back
Fore
SplineSet
320 679 m 0
 324 679 327 676 326 672 c 0
 296 493 l 1
 475 493 l 2
 479 493 482 490 481 486 c 0
 480 482 477 479 473 479 c 0
 294 479 l 1
 264 300 l 2
 263 296 260 293 256 293 c 0
 252 293 249 296 250 300 c 0
 280 479 l 1
 101 479 l 2
 97 479 94 482 95 486 c 0
 96 490 99 493 103 493 c 0
 282 493 l 1
 312 672 l 2
 313 676 316 679 320 679 c 0
EndSplineSet
EndChar

StartChar: comma
Encoding: 44 44 11
Width: 576
VWidth: 186
Flags: W
HStem: 107 21G<223 226> 200 14<249 317> 293 14<262 342>
VStem: 218 139
LayerCount: 2
Back
Fore
SplineSet
259 307 m 1
 351 307 l 2
 355 307 358 304 357 300 c 2
 342 208 l 2
 342 207 l 0
 342 205 339 203 337 202 c 2
 230 109 l 2
 229 108 227 107 225 107 c 0
 221 107 217 110 218 114 c 0
 218 116 220 118 221 119 c 2
 317 200 l 1
 241 200 l 2
 237 200 233 203 234 207 c 2
 249 300 l 2
 250 304 255 307 259 307 c 1
262 293 m 1
 249 214 l 1
 329 214 l 1
 342 293 l 1
 262 293 l 1
EndSplineSet
EndChar

StartChar: hyphen
Encoding: 45 45 12
Width: 576
VWidth: 186
Flags: W
HStem: 479 14<95.0483 480.952>
LayerCount: 2
Back
Fore
SplineSet
103 493 m 0
 475 493 l 2
 479 493 482 490 481 486 c 0
 480 482 477 479 473 479 c 0
 101 479 l 2
 97 479 94 482 95 486 c 0
 96 490 99 493 103 493 c 0
EndSplineSet
EndChar

StartChar: period
Encoding: 46 46 13
Width: 576
VWidth: 186
Flags: W
HStem: 200 14<241 321> 293 14<255 335>
LayerCount: 2
Back
Fore
SplineSet
251 307 m 0
 343 307 l 2
 347 307 351 304 350 300 c 2
 334 207 l 2
 333 203 329 200 325 200 c 2
 233 200 l 2
 231 200 228 201 227 202 c 0
 226 203 226 205 226 207 c 0
 226 208 l 2
 242 300 l 2
 243 304 247 307 251 307 c 0
255 293 m 1
 241 214 l 1
 321 214 l 1
 335 293 l 1
 255 293 l 1
EndSplineSet
EndChar

StartChar: slash
Encoding: 47 47 14
Width: 576
VWidth: 186
Flags: W
HStem: 200 21G<14 17>
LayerCount: 2
Back
Fore
SplineSet
560 679 m 0
 564 679 568 676 567 672 c 0
 567 670 565 668 564 667 c 2
 20 202 l 2
 19 201 18 200 16 200 c 0
 12 200 8 203 9 207 c 0
 9 209 11 211 12 212 c 2
 556 677 l 2
 557 678 558 679 560 679 c 0
EndSplineSet
EndChar

StartChar: zero
Encoding: 48 48 15
Width: 576
VWidth: 186
Flags: W
HStem: 200 14<153 333> 758 14<243 423>
LayerCount: 2
Back
Fore
SplineSet
243 772 m 0
 429 772 l 2
 431 772 432 771 433 770 c 2
 510 678 l 2
 512 677 512 674 512 672 c 0
 450 300 l 2
 450 298 448 296 447 295 c 2
 339 202 l 2
 338 201 335 200 333 200 c 0
 147 200 l 2
 145 200 144 201 143 202 c 2
 66 294 l 2
 64 295 64 298 64 300 c 0
 64 301 l 2
 126 672 l 2
 126 674 128 676 129 677 c 2
 237 770 l 2
 238 771 241 772 243 772 c 0
243 758 m 1
 139 669 l 1
 81 317 l 1
 495 672 l 1
 423 758 l 1
 243 758 l 1
495 655 m 1
 81 300 l 1
 153 214 l 1
 333 214 l 1
 437 303 l 1
 495 655 l 1
EndSplineSet
EndChar

StartChar: one
Encoding: 49 49 16
Width: 576
VWidth: 186
Flags: W
HStem: 200 14<188.048 282 296 387.952> 752 20G<381 384>
VStem: 188 200
LayerCount: 2
Back
Fore
SplineSet
382 772 m 0
 386 772 389 769 388 765 c 2
 296 214 l 1
 382 214 l 2
 386 214 389 211 388 207 c 0
 387 203 384 200 380 200 c 0
 288 200 l 2
 287 200 l 0
 286 200 l 2
 194 200 l 2
 190 200 187 203 188 207 c 0
 189 211 192 214 196 214 c 0
 282 214 l 1
 371 748 l 1
 277 667 l 2
 276 666 273 665 271 665 c 0
 267 665 264 668 265 672 c 0
 265 674 267 676 268 677 c 2
 377 770 l 2
 378 771 380 772 382 772 c 0
EndSplineSet
EndChar

StartChar: two
Encoding: 50 50 17
Width: 576
VWidth: 186
Flags: W
HStem: 200 14<81 441.952> 758 14<251 431>
LayerCount: 2
Back
Fore
SplineSet
250 772 m 0
 436 772 l 2
 438 772 440 771 441 770 c 2
 519 677 l 2
 520 676 520 674 520 672 c 2
 504 579 l 2
 504 577 502 575 501 574 c 2
 81 214 l 1
 436 214 l 2
 440 214 443 211 442 207 c 0
 441 203 438 200 434 200 c 0
 62 200 l 2
 58 200 55 203 56 207 c 0
 56 209 58 211 59 212 c 2
 491 582 l 1
 505 669 l 1
 431 758 l 1
 251 758 l 1
 145 667 l 2
 144 666 142 665 140 665 c 0
 136 665 133 668 134 672 c 0
 134 674 136 676 137 677 c 2
 245 770 l 2
 246 771 248 772 250 772 c 0
EndSplineSet
EndChar

StartChar: three
Encoding: 51 51 18
Width: 576
VWidth: 186
Flags: W
HStem: 200 14<153 333> 479 14<281.048 377> 758 14<243 423>
CounterMasks: 1 e0
LayerCount: 2
Back
Fore
SplineSet
243 772 m 0
 429 772 l 2
 431 772 432 771 433 770 c 2
 511 677 l 2
 512 676 512 674 512 672 c 2
 496 579 l 2
 496 577 495 575 494 574 c 2
 391 486 l 1
 464 398 l 2
 465 397 466 395 466 393 c 2
 450 300 l 2
 450 298 448 296 447 295 c 2
 339 202 l 2
 338 201 335 200 333 200 c 0
 147 200 l 2
 145 200 144 201 143 202 c 2
 65 295 l 2
 64 296 64 298 64 300 c 0
 65 304 68 307 72 307 c 0
 74 307 76 306 77 305 c 2
 153 214 l 1
 333 214 l 1
 437 303 l 1
 451 390 l 1
 377 479 l 1
 287 479 l 2
 283 479 280 482 281 486 c 0
 282 490 285 493 289 493 c 0
 379 493 l 1
 483 582 l 1
 497 669 l 1
 423 758 l 1
 243 758 l 1
 137 667 l 2
 136 666 134 665 132 665 c 0
 128 665 125 668 126 672 c 0
 126 674 128 676 129 677 c 2
 237 770 l 2
 238 771 241 772 243 772 c 0
EndSplineSet
EndChar

StartChar: four
Encoding: 52 52 19
Width: 576
VWidth: 186
Flags: W
HStem: 200 21G<347 351> 386 14<110 373 389 480.952> 752 20G<443 446>
LayerCount: 2
Back
Fore
SplineSet
444 772 m 0
 448 772 451 769 450 765 c 2
 389 400 l 1
 475 400 l 2
 479 400 482 397 481 393 c 0
 480 389 477 386 473 386 c 0
 387 386 l 1
 357 207 l 2
 356 203 353 200 349 200 c 0
 345 200 342 203 343 207 c 0
 373 386 l 1
 101 386 l 2
 97 386 94 389 95 393 c 2
 110 486 l 2
 110 488 112 490 113 491 c 2
 439 770 l 2
 440 771 442 772 444 772 c 0
433 748 m 1
 124 483 l 1
 110 400 l 1
 375 400 l 1
 433 748 l 1
EndSplineSet
EndChar

StartChar: five
Encoding: 53 53 20
Width: 576
VWidth: 186
Flags: W
HStem: 200 14<145 325> 572 14<118 385> 758 14<147 519.952>
LayerCount: 2
Back
Fore
SplineSet
142 772 m 1
 514 772 l 2
 518 772 521 769 520 765 c 0
 519 761 516 758 512 758 c 0
 147 758 l 1
 118 586 l 1
 390 586 l 2
 392 586 394 585 395 584 c 2
 472 491 l 2
 473 490 473 488 473 486 c 2
 442 300 l 2
 442 298 440 296 439 295 c 2
 331 202 l 2
 330 201 328 200 326 200 c 0
 140 200 l 2
 138 200 136 201 135 202 c 2
 57 295 l 2
 56 296 56 298 56 300 c 0
 57 304 60 307 64 307 c 0
 66 307 68 306 69 305 c 2
 145 214 l 1
 325 214 l 1
 429 303 l 1
 459 483 l 1
 385 572 l 1
 109 572 l 2
 105 572 102 575 103 579 c 2
 134 765 l 2
 135 769 138 772 142 772 c 1
EndSplineSet
EndChar

StartChar: six
Encoding: 54 54 21
Width: 576
VWidth: 186
Flags: W
HStem: 200 14<153 333> 572 14<212 392> 758 14<243 423>
LayerCount: 2
Back
Fore
SplineSet
243 772 m 0
 429 772 l 2
 431 772 432 771 433 770 c 2
 511 677 l 2
 512 676 512 674 512 672 c 0
 511 668 508 665 504 665 c 0
 502 665 500 666 499 667 c 2
 423 758 l 1
 243 758 l 1
 139 669 l 1
 112 503 l 1
 206 584 l 2
 207 585 210 586 212 586 c 0
 398 586 l 2
 400 586 401 585 402 584 c 2
 480 491 l 2
 481 490 481 488 481 486 c 2
 450 300 l 2
 450 298 448 296 447 295 c 2
 339 202 l 2
 338 201 335 200 333 200 c 0
 147 200 l 2
 145 200 144 201 143 202 c 2
 65 295 l 2
 64 296 64 298 64 300 c 2
 95 485 l 2
 95 486 l 0
 95 487 l 2
 126 672 l 2
 126 674 128 676 129 677 c 2
 237 770 l 2
 238 771 241 772 243 772 c 0
212 572 m 1
 108 483 l 1
 79 303 l 1
 153 214 l 1
 333 214 l 1
 437 303 l 1
 466 483 l 1
 392 572 l 1
 212 572 l 1
EndSplineSet
EndChar

StartChar: seven
Encoding: 55 55 22
Width: 576
VWidth: 186
Flags: W
HStem: 200 21G<52 55> 758 14<141.049 512>
LayerCount: 2
Back
Fore
SplineSet
150 772 m 0
 522 772 l 2
 526 772 528 769 527 765 c 2
 496 579 l 2
 496 577 495 575 494 574 c 2
 60 202 l 2
 59 201 56 200 54 200 c 0
 50 200 48 203 49 207 c 0
 49 209 50 211 51 212 c 2
 483 582 l 1
 512 758 l 1
 147 758 l 2
 143 758 140 761 141 765 c 0
 142 769 146 772 150 772 c 0
EndSplineSet
EndChar

StartChar: eight
Encoding: 56 56 23
Width: 576
VWidth: 186
Flags: W
HStem: 200 14<153 333> 479 14<199 377> 758 14<243 423>
CounterMasks: 1 e0
LayerCount: 2
Back
Fore
SplineSet
243 772 m 0
 429 772 l 2
 431 772 432 771 433 770 c 2
 511 677 l 2
 512 676 512 674 512 672 c 2
 496 579 l 2
 496 577 495 575 494 574 c 2
 391 486 l 1
 464 398 l 2
 465 397 466 395 466 393 c 2
 450 300 l 2
 450 298 448 296 447 295 c 2
 339 202 l 2
 338 201 335 200 333 200 c 0
 147 200 l 2
 145 200 144 201 143 202 c 2
 65 295 l 2
 64 296 64 298 64 300 c 2
 80 393 l 2
 80 395 81 397 82 398 c 2
 185 486 l 1
 112 574 l 2
 111 575 110 577 110 579 c 2
 126 672 l 2
 126 674 128 676 129 677 c 2
 237 770 l 2
 238 771 241 772 243 772 c 0
243 758 m 1
 139 669 l 1
 125 582 l 1
 199 493 l 1
 379 493 l 1
 483 582 l 1
 497 669 l 1
 423 758 l 1
 243 758 l 1
197 479 m 1
 93 390 l 1
 79 303 l 1
 153 214 l 1
 333 214 l 1
 437 303 l 1
 451 390 l 1
 377 479 l 1
 197 479 l 1
EndSplineSet
EndChar

StartChar: nine
Encoding: 57 57 24
Width: 576
VWidth: 186
Flags: W
HStem: 200 14<153 333> 479 14<199 379> 758 14<243 423>
CounterMasks: 1 e0
LayerCount: 2
Back
Fore
SplineSet
243 772 m 0
 429 772 l 2
 431 772 432 771 433 770 c 2
 511 677 l 2
 512 676 512 674 512 672 c 2
 497 580 l 2
 496 579 l 0
 496 578 l 2
 450 300 l 2
 450 298 448 296 447 295 c 2
 339 202 l 2
 338 201 335 200 333 200 c 0
 147 200 l 2
 145 200 144 201 143 202 c 2
 65 295 l 2
 64 296 64 298 64 300 c 0
 65 304 68 307 72 307 c 0
 74 307 76 306 77 305 c 2
 153 214 l 1
 333 214 l 1
 437 303 l 1
 480 562 l 1
 385 481 l 2
 384 480 382 479 380 479 c 0
 194 479 l 2
 192 479 190 480 189 481 c 2
 112 574 l 2
 111 575 110 577 110 579 c 2
 126 672 l 2
 126 674 128 676 129 677 c 2
 237 770 l 2
 238 771 241 772 243 772 c 0
243 758 m 1
 139 669 l 1
 125 582 l 1
 199 493 l 1
 379 493 l 1
 483 582 l 1
 497 669 l 1
 423 758 l 1
 243 758 l 1
EndSplineSet
EndChar

StartChar: colon
Encoding: 58 58 25
Width: 576
VWidth: 186
Flags: W
HStem: 293 14<218 298> 386 14<231 311> 572 14<265 345> 665 14<278 358>
LayerCount: 2
Back
Fore
SplineSet
274 679 m 1
 366 679 l 2
 370 679 374 676 373 672 c 2
 358 579 l 2
 357 575 352 572 348 572 c 2
 256 572 l 2
 254 572 252 573 251 574 c 0
 250 575 250 577 250 579 c 0
 250 580 l 2
 265 672 l 2
 266 676 270 679 274 679 c 1
278 665 m 1
 265 586 l 1
 345 586 l 1
 358 665 l 1
 278 665 l 1
228 400 m 1
 320 400 l 2
 324 400 328 397 327 393 c 2
 311 300 l 2
 310 296 306 293 302 293 c 2
 210 293 l 2
 208 293 205 294 204 295 c 0
 203 296 203 298 203 300 c 0
 203 301 l 2
 219 393 l 2
 220 397 224 400 228 400 c 1
231 386 m 1
 218 307 l 1
 298 307 l 1
 311 386 l 1
 231 386 l 1
EndSplineSet
EndChar

StartChar: semicolon
Encoding: 59 59 26
Width: 576
VWidth: 186
Flags: W
HStem: 200 21G<200 203> 293 14<226 294> 386 14<239 319> 572 14<272 352> 665 14<286 366>
LayerCount: 2
Back
Fore
SplineSet
282 679 m 0
 374 679 l 2
 378 679 382 676 381 672 c 2
 365 580 l 2
 365 579 l 0
 365 577 363 575 362 574 c 0
 361 573 358 572 356 572 c 0
 264 572 l 2
 260 572 256 575 257 579 c 2
 273 672 l 2
 274 676 278 679 282 679 c 0
286 665 m 1
 272 586 l 1
 352 586 l 1
 366 665 l 1
 286 665 l 1
235 400 m 2
 327 400 l 2
 331 400 335 397 334 393 c 2
 319 301 l 2
 319 300 l 0
 319 298 316 296 314 295 c 2
 206 202 l 2
 205 201 204 200 202 200 c 0
 198 200 194 203 195 207 c 0
 195 209 197 211 198 212 c 2
 294 293 l 1
 218 293 l 2
 214 293 210 296 211 300 c 2
 226 393 l 2
 227 397 231 400 235 400 c 2
239 386 m 1
 226 307 l 1
 306 307 l 1
 319 386 l 1
 239 386 l 1
EndSplineSet
EndChar

StartChar: less
Encoding: 60 60 27
Width: 576
VWidth: 186
Flags: W
HStem: 200 21G<356 359> 752 20G<451 454>
LayerCount: 2
Back
Fore
SplineSet
452 772 m 0
 456 772 458 769 457 765 c 0
 457 763 455 761 454 760 c 2
 135 486 l 1
 363 212 l 2
 364 211 364 209 364 207 c 0
 363 203 361 200 357 200 c 0
 355 200 352 201 351 202 c 2
 120 481 l 2
 119 482 119 484 119 486 c 0
 119 488 121 490 122 491 c 2
 446 770 l 2
 447 771 450 772 452 772 c 0
EndSplineSet
EndChar

StartChar: equal
Encoding: 61 61 28
Width: 576
VWidth: 186
Flags: W
HStem: 386 14<127.048 418.952> 572 14<158.048 449.952>
VStem: 127 323
LayerCount: 2
Back
Fore
SplineSet
165 586 m 0
 445 586 l 2
 449 586 451 583 450 579 c 0
 449 575 446 572 442 572 c 0
 162 572 l 2
 158 572 157 575 158 579 c 0
 159 583 161 586 165 586 c 0
134 400 m 0
 414 400 l 2
 418 400 420 397 419 393 c 0
 418 389 415 386 411 386 c 0
 131 386 l 2
 127 386 126 389 127 393 c 0
 128 397 130 400 134 400 c 0
EndSplineSet
EndChar

StartChar: greater
Encoding: 62 62 29
Width: 576
VWidth: 186
Flags: W
HStem: 200 21G<122 125> 752 20G<217 220>
LayerCount: 2
Back
Fore
SplineSet
219 772 m 0
 221 772 224 771 225 770 c 2
 456 491 l 2
 457 490 457 488 457 486 c 0
 457 484 455 482 454 481 c 2
 130 202 l 2
 129 201 126 200 124 200 c 0
 120 200 118 203 119 207 c 0
 119 209 121 211 122 212 c 2
 441 486 l 1
 213 760 l 2
 212 761 212 763 212 765 c 0
 213 769 215 772 219 772 c 0
EndSplineSet
EndChar

StartChar: question
Encoding: 63 63 30
Width: 576
VWidth: 186
Flags: W
HStem: 200 21G<207 211> 479 14<263 348> 758 14<212 392>
LayerCount: 2
Back
Fore
SplineSet
212 772 m 0
 398 772 l 2
 400 772 401 771 402 770 c 2
 480 677 l 2
 481 676 481 674 481 672 c 2
 466 579 l 2
 466 577 464 575 463 574 c 2
 354 481 l 2
 353 480 351 479 349 479 c 0
 263 479 l 1
 249 393 l 2
 248 389 244 386 240 386 c 0
 236 386 234 389 235 393 c 0
 250 486 l 2
 251 490 254 493 258 493 c 2
 348 493 l 1
 452 582 l 1
 467 669 l 1
 392 758 l 1
 212 758 l 1
 106 667 l 2
 105 666 103 665 101 665 c 0
 97 665 94 668 95 672 c 0
 95 674 97 676 98 677 c 2
 206 770 l 2
 207 771 210 772 212 772 c 0
227 307 m 0
 231 307 234 304 233 300 c 0
 218 207 l 2
 217 203 213 200 209 200 c 0
 205 200 203 203 204 207 c 0
 219 300 l 2
 220 304 223 307 227 307 c 0
EndSplineSet
EndChar

StartChar: at
Encoding: 64 64 31
Width: 576
VWidth: 186
Flags: W
HStem: 200 14<160 441.952> 293 14<180 356> 572 14<224 396> 665 14<236 416>
LayerCount: 2
Back
Fore
SplineSet
235 679 m 0
 421 679 l 2
 423 679 425 678 426 677 c 2
 503 584 l 2
 504 583 504 581 504 579 c 0
 473 393 l 2
 473 391 471 389 470 388 c 2
 362 295 l 2
 361 294 359 293 357 293 c 2
 171 293 l 2
 167 293 164 296 165 300 c 2
 211 579 l 2
 212 583 215 586 219 586 c 2
 405 586 l 2
 409 586 412 583 411 579 c 2
 380 393 l 2
 379 389 376 386 372 386 c 0
 368 386 365 389 366 393 c 0
 396 572 l 1
 224 572 l 1
 180 307 l 1
 356 307 l 1
 460 396 l 1
 490 576 l 1
 416 665 l 1
 236 665 l 1
 132 576 l 1
 86 303 l 1
 160 214 l 1
 436 214 l 2
 440 214 443 211 442 207 c 0
 441 203 438 200 434 200 c 0
 155 200 l 2
 153 200 151 201 150 202 c 2
 73 295 l 2
 72 296 72 298 72 300 c 2
 118 579 l 2
 118 581 120 583 121 584 c 2
 230 677 l 2
 231 678 233 679 235 679 c 0
EndSplineSet
EndChar

StartChar: A
Encoding: 65 65 32
Width: 576
VWidth: 186
Flags: W
HStem: 200 21G<68 72 440 444> 479 14<126 481> 752 20G<350 352>
LayerCount: 2
Back
Fore
SplineSet
351 772 m 0
 353 772 355 771 356 770 c 2
 511 584 l 2
 512 583 512 581 512 579 c 0
 497 487 l 2
 497 486 l 0
 496 485 l 2
 450 207 l 2
 449 203 446 200 442 200 c 0
 438 200 435 203 436 207 c 0
 481 479 l 1
 123 479 l 1
 78 207 l 2
 77 203 74 200 70 200 c 0
 66 200 63 203 64 207 c 0
 110 485 l 2
 111 486 l 0
 111 487 l 2
 126 579 l 2
 126 581 128 583 129 584 c 2
 346 770 l 2
 347 771 349 772 351 772 c 0
348 755 m 1
 140 576 l 1
 126 493 l 1
 484 493 l 1
 498 576 l 1
 348 755 l 1
EndSplineSet
EndChar

StartChar: B
Encoding: 66 66 33
Width: 576
VWidth: 186
Flags: W
HStem: 200 14<71 340> 479 14<118 385> 758 14<162 431>
CounterMasks: 1 e0
LayerCount: 2
Back
Fore
SplineSet
157 772 m 1
 436 772 l 2
 438 772 440 771 441 770 c 2
 519 677 l 2
 520 676 520 674 520 672 c 2
 504 579 l 2
 504 577 502 575 501 574 c 2
 399 486 l 1
 472 398 l 2
 473 397 473 395 473 393 c 2
 458 300 l 2
 458 298 456 296 455 295 c 2
 346 202 l 2
 345 201 343 200 341 200 c 0
 63 200 l 2
 62 200 l 0
 60 200 58 201 57 202 c 0
 56 203 56 205 56 207 c 0
 56 208 l 2
 103 485 l 2
 103 486 l 0
 103 487 l 2
 149 765 l 2
 150 769 153 772 157 772 c 1
162 758 m 1
 118 493 l 1
 387 493 l 1
 491 582 l 1
 505 669 l 1
 431 758 l 1
 162 758 l 1
116 479 m 1
 71 214 l 1
 340 214 l 1
 444 303 l 1
 459 390 l 1
 385 479 l 1
 116 479 l 1
EndSplineSet
EndChar

StartChar: C
Encoding: 67 67 34
Width: 576
VWidth: 186
Flags: W
HStem: 200 14<153 333> 758 14<243 423>
LayerCount: 2
Back
Fore
SplineSet
243 772 m 0
 429 772 l 2
 431 772 432 771 433 770 c 2
 511 677 l 2
 512 676 512 674 512 672 c 0
 511 668 508 665 504 665 c 0
 502 665 500 666 499 667 c 2
 423 758 l 1
 243 758 l 1
 139 669 l 1
 79 303 l 1
 153 214 l 1
 333 214 l 1
 439 305 l 2
 440 306 442 307 444 307 c 0
 448 307 451 304 450 300 c 0
 450 298 448 296 447 295 c 2
 339 202 l 2
 338 201 335 200 333 200 c 0
 147 200 l 2
 145 200 144 201 143 202 c 2
 65 295 l 2
 64 296 64 298 64 300 c 2
 126 672 l 2
 126 674 128 676 129 677 c 2
 237 770 l 2
 238 771 241 772 243 772 c 0
EndSplineSet
EndChar

StartChar: D
Encoding: 68 68 35
Width: 576
VWidth: 186
Flags: W
HStem: 200 14<71 340> 758 14<162 431>
LayerCount: 2
Back
Fore
SplineSet
157 772 m 1
 436 772 l 2
 438 772 440 771 441 770 c 2
 519 677 l 2
 520 676 520 674 520 672 c 2
 458 300 l 2
 458 298 456 296 455 295 c 2
 346 202 l 2
 345 201 343 200 341 200 c 0
 63 200 l 2
 62 200 l 0
 60 200 58 201 57 202 c 0
 56 203 56 205 56 207 c 0
 56 208 l 2
 149 765 l 2
 150 769 153 772 157 772 c 1
162 758 m 1
 71 214 l 1
 340 214 l 1
 444 303 l 1
 505 669 l 1
 431 758 l 1
 162 758 l 1
EndSplineSet
EndChar

StartChar: E
Encoding: 69 69 36
Width: 576
VWidth: 186
Flags: W
HStem: 200 14<64 434.951> 479 14<110 387.952> 758 14<154 526.952>
CounterMasks: 1 e0
LayerCount: 2
Back
Fore
SplineSet
150 772 m 1
 522 772 l 2
 526 772 528 769 527 765 c 0
 526 761 523 758 519 758 c 0
 154 758 l 1
 110 493 l 1
 382 493 l 2
 386 493 389 490 388 486 c 0
 387 482 384 479 380 479 c 0
 108 479 l 1
 64 214 l 1
 429 214 l 2
 433 214 436 211 435 207 c 0
 434 203 430 200 426 200 c 0
 54 200 l 2
 50 200 48 203 49 207 c 2
 95 485 l 2
 95 486 l 0
 95 487 l 2
 141 765 l 2
 142 769 146 772 150 772 c 1
EndSplineSet
EndChar

StartChar: F
Encoding: 70 70 37
Width: 576
VWidth: 186
Flags: W
HStem: 200 21G<52 56> 479 14<110 387.952> 758 14<154 526.952>
LayerCount: 2
Back
Fore
SplineSet
150 772 m 1
 522 772 l 2
 526 772 528 769 527 765 c 0
 526 761 523 758 519 758 c 0
 154 758 l 1
 110 493 l 1
 382 493 l 2
 386 493 389 490 388 486 c 0
 387 482 384 479 380 479 c 0
 108 479 l 1
 63 207 l 2
 62 203 58 200 54 200 c 0
 50 200 48 203 49 207 c 0
 95 485 l 2
 95 486 l 0
 95 487 l 2
 141 765 l 2
 142 769 146 772 150 772 c 1
EndSplineSet
EndChar

StartChar: G
Encoding: 71 71 38
Width: 576
VWidth: 186
Flags: W
HStem: 200 14<153 422> 479 14<281.048 466> 758 14<243 423>
CounterMasks: 1 e0
LayerCount: 2
Back
Fore
SplineSet
243 772 m 0
 429 772 l 2
 431 772 432 771 433 770 c 2
 511 677 l 2
 512 676 512 674 512 672 c 0
 511 668 508 665 504 665 c 0
 502 665 500 666 499 667 c 2
 423 758 l 1
 243 758 l 1
 139 669 l 1
 79 303 l 1
 153 214 l 1
 422 214 l 1
 466 479 l 1
 287 479 l 2
 283 479 280 482 281 486 c 0
 282 490 285 493 289 493 c 0
 475 493 l 2
 479 493 482 490 481 486 c 2
 435 207 l 2
 434 203 430 200 426 200 c 2
 147 200 l 2
 145 200 144 201 143 202 c 2
 65 295 l 2
 64 296 64 298 64 300 c 2
 126 672 l 2
 126 674 128 676 129 677 c 2
 237 770 l 2
 238 771 241 772 243 772 c 0
EndSplineSet
EndChar

StartChar: H
Encoding: 72 72 39
Width: 576
VWidth: 186
Flags: W
HStem: 200 21G<52 56 424 428> 479 14<110 466> 752 20G<148 152 520 524>
LayerCount: 2
Back
Fore
SplineSet
150 772 m 0
 154 772 156 769 155 765 c 0
 110 493 l 1
 468 493 l 1
 513 765 l 2
 514 769 518 772 522 772 c 0
 526 772 528 769 527 765 c 0
 481 487 l 2
 481 486 l 0
 481 485 l 2
 435 207 l 2
 434 203 430 200 426 200 c 0
 422 200 420 203 421 207 c 0
 466 479 l 1
 108 479 l 1
 63 207 l 2
 62 203 58 200 54 200 c 0
 50 200 48 203 49 207 c 0
 95 485 l 2
 95 486 l 0
 95 487 l 2
 141 765 l 2
 142 769 146 772 150 772 c 0
EndSplineSet
EndChar

StartChar: I
Encoding: 73 73 40
Width: 576
VWidth: 186
Flags: W
HStem: 200 14<142.048 236 250 341.951> 758 14<234.049 326 340 433.952>
VStem: 142 292
LayerCount: 2
Back
Fore
SplineSet
336 772 m 0
 337 772 l 2
 429 772 l 2
 433 772 435 769 434 765 c 0
 433 761 430 758 426 758 c 0
 340 758 l 1
 250 214 l 1
 336 214 l 2
 340 214 343 211 342 207 c 0
 341 203 337 200 333 200 c 0
 241 200 l 2
 240 200 l 0
 239 200 l 2
 147 200 l 2
 143 200 141 203 142 207 c 0
 143 211 146 214 150 214 c 0
 236 214 l 1
 326 758 l 1
 240 758 l 2
 236 758 233 761 234 765 c 0
 235 769 239 772 243 772 c 0
 335 772 l 2
 336 772 l 0
EndSplineSet
EndChar

StartChar: J
Encoding: 74 74 41
Width: 576
VWidth: 186
Flags: W
HStem: 200 14<191 279> 752 20G<466 470>
LayerCount: 2
Back
Fore
SplineSet
468 772 m 0
 472 772 474 769 473 765 c 0
 395 300 l 2
 395 298 393 296 392 295 c 2
 285 202 l 2
 284 201 281 200 279 200 c 0
 187 200 l 2
 185 200 182 201 181 202 c 2
 104 295 l 2
 103 296 103 298 103 300 c 0
 104 304 106 307 110 307 c 0
 112 307 115 306 116 305 c 2
 191 214 l 1
 279 214 l 1
 382 303 l 1
 459 765 l 2
 460 769 464 772 468 772 c 0
EndSplineSet
EndChar

StartChar: K
Encoding: 75 75 42
Width: 576
VWidth: 186
Flags: W
HStem: 200 21G<52 56 425 428> 752 20G<148 152 521 524>
LayerCount: 2
Back
Fore
SplineSet
150 772 m 0
 154 772 156 769 155 765 c 0
 96 410 l 1
 190 490 l 2
 190 491 191 492 192 492 c 2
 516 770 l 2
 517 771 520 772 522 772 c 0
 526 772 528 769 527 765 c 0
 527 763 526 761 525 760 c 2
 205 486 l 1
 433 212 l 2
 434 211 435 209 435 207 c 0
 434 203 430 200 426 200 c 0
 424 200 423 201 422 202 c 2
 193 476 l 1
 93 390 l 1
 63 207 l 2
 62 203 58 200 54 200 c 0
 50 200 48 203 49 207 c 0
 79 392 l 2
 80 393 l 0
 80 394 l 2
 141 765 l 2
 142 769 146 772 150 772 c 0
EndSplineSet
EndChar

StartChar: L
Encoding: 76 76 43
Width: 576
VWidth: 186
Flags: W
HStem: 200 14<110 480.952> 752 20G<194 198>
LayerCount: 2
Back
Fore
SplineSet
196 772 m 0
 200 772 203 769 202 765 c 0
 110 214 l 1
 475 214 l 2
 479 214 482 211 481 207 c 0
 480 203 477 200 473 200 c 0
 101 200 l 2
 97 200 94 203 95 207 c 2
 188 765 l 2
 189 769 192 772 196 772 c 0
EndSplineSet
EndChar

StartChar: M
Encoding: 77 77 44
Width: 576
VWidth: 186
Flags: W
HStem: 200 21G<52 56 424 428> 752 20G<148 151 521 524>
LayerCount: 2
Back
Fore
SplineSet
150 772 m 0
 152 772 153 771 154 770 c 2
 305 589 l 1
 516 770 l 2
 517 771 520 772 522 772 c 0
 526 772 528 769 527 765 c 2
 435 207 l 2
 434 203 430 200 426 200 c 0
 422 200 420 203 421 207 c 0
 511 748 l 1
 310 576 l 1
 295 486 l 2
 294 482 291 479 287 479 c 0
 283 479 280 482 281 486 c 2
 296 576 l 1
 153 748 l 1
 63 207 l 2
 62 203 58 200 54 200 c 0
 50 200 48 203 49 207 c 0
 141 765 l 2
 142 769 146 772 150 772 c 0
EndSplineSet
EndChar

StartChar: N
Encoding: 78 78 45
Width: 576
VWidth: 186
Flags: W
HStem: 200 21G<52 56 424 428> 752 20G<148 152 520 524>
LayerCount: 2
Back
Fore
SplineSet
150 772 m 0
 154 772 156 769 155 765 c 0
 140 675 l 1
 439 317 l 1
 513 765 l 2
 514 769 518 772 522 772 c 0
 526 772 528 769 527 765 c 0
 450 301 l 2
 450 300 l 0
 450 299 l 2
 435 207 l 2
 434 203 430 200 426 200 c 0
 422 200 420 203 421 207 c 0
 436 297 l 1
 137 655 l 1
 63 207 l 2
 62 203 58 200 54 200 c 0
 50 200 48 203 49 207 c 0
 126 671 l 2
 126 672 l 0
 126 673 l 2
 141 765 l 2
 142 769 146 772 150 772 c 0
EndSplineSet
EndChar

StartChar: O
Encoding: 79 79 46
Width: 576
VWidth: 186
Flags: W
HStem: 200 14<153 333> 758 14<243 423>
LayerCount: 2
Back
Fore
SplineSet
243 772 m 0
 429 772 l 2
 431 772 432 771 433 770 c 2
 511 677 l 2
 512 676 512 674 512 672 c 2
 450 300 l 2
 450 298 448 296 447 295 c 2
 339 202 l 2
 338 201 335 200 333 200 c 0
 147 200 l 2
 145 200 144 201 143 202 c 2
 66 294 l 2
 65 295 64 296 64 297 c 0
 65 298 l 0
 65 299 64 299 64 300 c 0
 64 301 l 2
 126 672 l 2
 126 674 128 676 129 677 c 2
 237 770 l 2
 238 771 241 772 243 772 c 0
243 758 m 1
 139 669 l 1
 78 303 l 1
 153 214 l 1
 333 214 l 1
 436 303 l 1
 497 669 l 1
 423 758 l 1
 243 758 l 1
EndSplineSet
EndChar

StartChar: P
Encoding: 80 80 47
Width: 576
VWidth: 186
Flags: W
HStem: 200 21G<60 64> 479 14<118 387> 758 14<162 431>
LayerCount: 2
Back
Fore
SplineSet
157 772 m 1
 436 772 l 2
 438 772 440 771 441 770 c 2
 519 677 l 2
 520 676 520 674 520 672 c 2
 504 579 l 2
 504 577 502 575 501 574 c 2
 393 481 l 2
 392 480 390 479 388 479 c 0
 116 479 l 1
 70 207 l 2
 69 203 66 200 62 200 c 0
 58 200 55 203 56 207 c 0
 103 485 l 2
 103 486 l 0
 103 487 l 2
 149 765 l 2
 150 769 153 772 157 772 c 1
162 758 m 1
 118 493 l 1
 387 493 l 1
 491 582 l 1
 505 669 l 1
 431 758 l 1
 162 758 l 1
EndSplineSet
EndChar

StartChar: Q
Encoding: 81 81 48
Width: 576
VWidth: 186
Flags: W
HStem: 200 14<153 333> 758 14<243 423>
LayerCount: 2
Back
Fore
SplineSet
243 772 m 0
 429 772 l 2
 431 772 432 771 433 770 c 2
 511 677 l 2
 512 676 512 674 512 672 c 2
 450 300 l 2
 450 298 448 296 447 295 c 2
 398 254 l 1
 433 212 l 2
 434 211 435 209 435 207 c 0
 434 203 430 200 426 200 c 0
 424 200 423 201 422 202 c 2
 388 244 l 1
 340 203 l 2
 339 202 338 201 337 201 c 0
 336 201 334 200 333 200 c 0
 332 200 l 2
 147 200 l 2
 145 200 144 201 143 202 c 2
 65 295 l 2
 64 296 64 298 64 300 c 2
 126 672 l 2
 126 674 128 676 129 677 c 2
 237 770 l 2
 238 771 241 772 243 772 c 0
243 758 m 1
 139 669 l 1
 79 303 l 1
 153 214 l 1
 333 214 l 1
 379 254 l 1
 267 388 l 2
 266 389 266 391 266 393 c 0
 267 397 270 400 274 400 c 0
 276 400 277 399 278 398 c 2
 391 264 l 1
 437 303 l 1
 497 669 l 1
 423 758 l 1
 243 758 l 1
EndSplineSet
EndChar

StartChar: R
Encoding: 82 82 49
Width: 576
VWidth: 186
Flags: W
HStem: 200 21G<60 64 433 436> 479 14<118 199 219 387> 758 14<162 431>
LayerCount: 2
Back
Fore
SplineSet
157 772 m 2
 436 772 l 2
 438 772 440 771 441 770 c 2
 519 677 l 2
 520 676 520 674 520 672 c 2
 504 579 l 2
 504 577 502 575 501 574 c 2
 393 481 l 2
 392 480 390 479 388 479 c 0
 219 479 l 1
 441 212 l 2
 442 211 442 209 442 207 c 0
 441 203 438 200 434 200 c 0
 432 200 430 201 429 202 c 2
 199 479 l 1
 116 479 l 1
 70 207 l 2
 69 203 66 200 62 200 c 0
 58 200 55 203 56 207 c 0
 103 485 l 2
 103 486 l 0
 103 487 l 2
 149 765 l 2
 150 769 153 772 157 772 c 2
162 758 m 1
 118 493 l 1
 203 493 l 2
 204 493 l 0
 205 493 l 2
 387 493 l 1
 491 582 l 1
 505 669 l 1
 431 758 l 1
 162 758 l 1
EndSplineSet
EndChar

StartChar: S
Encoding: 83 83 50
Width: 576
VWidth: 186
Flags: W
HStem: 200 14<153 333> 479 14<199 377> 758 14<243 423>
CounterMasks: 1 e0
LayerCount: 2
Back
Fore
SplineSet
243 772 m 0
 429 772 l 2
 431 772 432 771 433 770 c 2
 511 677 l 2
 512 676 512 674 512 672 c 0
 511 668 508 665 504 665 c 0
 502 665 500 666 499 667 c 2
 423 758 l 1
 243 758 l 1
 139 669 l 1
 125 582 l 1
 199 493 l 1
 382 493 l 2
 384 493 386 492 387 491 c 2
 464 398 l 2
 465 397 466 395 466 393 c 2
 450 300 l 2
 450 298 448 296 447 295 c 2
 339 202 l 2
 338 201 335 200 333 200 c 0
 147 200 l 2
 145 200 144 201 143 202 c 2
 65 295 l 2
 64 296 64 298 64 300 c 0
 65 304 68 307 72 307 c 0
 74 307 76 306 77 305 c 2
 153 214 l 1
 333 214 l 1
 437 303 l 1
 451 390 l 1
 377 479 l 1
 194 479 l 2
 192 479 190 480 189 481 c 2
 112 574 l 2
 111 575 110 577 110 579 c 2
 126 672 l 2
 126 674 128 676 129 677 c 2
 237 770 l 2
 238 771 241 772 243 772 c 0
EndSplineSet
EndChar

StartChar: T
Encoding: 84 84 51
Width: 576
VWidth: 186
Flags: W
HStem: 200 21G<192 196> 758 14<95.0483 280 294 480.952>
LayerCount: 2
Back
Fore
SplineSet
289 772 m 0
 290 772 l 2
 475 772 l 2
 479 772 482 769 481 765 c 0
 480 761 477 758 473 758 c 0
 294 758 l 1
 202 207 l 2
 201 203 198 200 194 200 c 0
 190 200 187 203 188 207 c 0
 280 758 l 1
 101 758 l 2
 97 758 94 761 95 765 c 0
 96 769 99 772 103 772 c 0
 288 772 l 2
 289 772 l 0
EndSplineSet
EndChar

StartChar: U
Encoding: 85 85 52
Width: 576
VWidth: 186
Flags: W
HStem: 200 14<145 325> 752 20G<140 144 512 516>
LayerCount: 2
Back
Fore
SplineSet
142 772 m 0
 146 772 149 769 148 765 c 0
 71 303 l 1
 145 214 l 1
 325 214 l 1
 429 303 l 1
 506 765 l 2
 507 769 510 772 514 772 c 0
 518 772 521 769 520 765 c 0
 442 300 l 2
 442 298 440 296 439 295 c 2
 331 202 l 2
 330 201 328 200 326 200 c 0
 140 200 l 2
 138 200 136 201 135 202 c 2
 57 295 l 2
 56 296 56 298 56 300 c 2
 134 765 l 2
 135 769 138 772 142 772 c 0
EndSplineSet
EndChar

StartChar: V
Encoding: 86 86 53
Width: 576
VWidth: 186
Flags: W
HStem: 200 21G<224 226> 752 20G<132 136 504 508>
LayerCount: 2
Back
Fore
SplineSet
134 772 m 0
 138 772 141 769 140 765 c 0
 78 396 l 1
 228 217 l 1
 436 396 l 1
 498 765 l 2
 499 769 502 772 506 772 c 0
 510 772 513 769 512 765 c 0
 450 393 l 2
 450 391 448 389 447 388 c 2
 230 202 l 2
 229 201 227 200 225 200 c 0
 223 200 221 201 220 202 c 2
 65 388 l 2
 64 389 64 391 64 393 c 2
 126 765 l 2
 127 769 130 772 134 772 c 0
EndSplineSet
EndChar

StartChar: W
Encoding: 87 87 54
Width: 576
VWidth: 186
Flags: W
HStem: 200 21G<52 55 425 428> 752 20G<148 152 520 524>
LayerCount: 2
Back
Fore
SplineSet
150 772 m 0
 154 772 156 769 155 765 c 0
 65 224 l 1
 266 396 l 1
 281 486 l 2
 282 490 285 493 289 493 c 0
 293 493 296 490 295 486 c 0
 280 396 l 1
 423 224 l 1
 513 765 l 2
 514 769 518 772 522 772 c 0
 526 772 528 769 527 765 c 0
 435 207 l 2
 434 203 430 200 426 200 c 0
 424 200 423 201 422 202 c 2
 271 383 l 1
 60 202 l 2
 59 201 56 200 54 200 c 0
 50 200 48 203 49 207 c 2
 141 765 l 2
 142 769 146 772 150 772 c 0
EndSplineSet
EndChar

StartChar: X
Encoding: 88 88 55
Width: 576
VWidth: 186
Flags: W
HStem: 200 21G<52 56 424 428> 752 20G<148 152 520 524>
LayerCount: 2
Back
Fore
SplineSet
150 772 m 0
 154 772 156 769 155 765 c 0
 140 675 l 1
 290 496 l 1
 498 675 l 1
 513 765 l 2
 514 769 518 772 522 772 c 0
 526 772 528 769 527 765 c 0
 512 672 l 2
 512 670 510 668 509 667 c 2
 298 486 l 1
 449 305 l 2
 450 304 450 302 450 300 c 2
 435 207 l 2
 434 203 430 200 426 200 c 0
 422 200 420 203 421 207 c 0
 436 297 l 1
 286 476 l 1
 78 297 l 1
 63 207 l 2
 62 203 58 200 54 200 c 0
 50 200 48 203 49 207 c 0
 64 300 l 2
 64 302 66 304 67 305 c 2
 278 486 l 1
 127 667 l 2
 126 668 126 670 126 672 c 0
 141 765 l 2
 142 769 146 772 150 772 c 0
EndSplineSet
EndChar

StartChar: Y
Encoding: 89 89 56
Width: 576
VWidth: 186
Flags: W
HStem: 200 21G<200 204> 752 20G<109 113 481 485>
LayerCount: 2
Back
Fore
SplineSet
111 772 m 0
 115 772 118 769 117 765 c 0
 102 675 l 1
 251 496 l 1
 460 675 l 1
 475 765 l 2
 476 769 479 772 483 772 c 0
 487 772 490 769 489 765 c 0
 473 672 l 2
 473 670 471 668 470 667 c 2
 256 483 l 1
 210 207 l 2
 209 203 206 200 202 200 c 0
 198 200 195 203 196 207 c 0
 242 483 l 1
 88 667 l 2
 87 668 87 670 87 672 c 0
 103 765 l 2
 104 769 107 772 111 772 c 0
EndSplineSet
EndChar

StartChar: Z
Encoding: 90 90 57
Width: 576
VWidth: 186
Flags: W
HStem: 200 14<64 434.951> 758 14<141.049 512>
LayerCount: 2
Back
Fore
SplineSet
150 772 m 0
 522 772 l 2
 526 772 528 769 527 765 c 2
 512 672 l 2
 512 670 510 668 509 667 c 2
 78 297 l 1
 64 214 l 1
 429 214 l 2
 433 214 436 211 435 207 c 0
 434 203 430 200 426 200 c 0
 54 200 l 2
 50 200 48 203 49 207 c 2
 64 300 l 2
 64 302 66 304 67 305 c 2
 498 675 l 1
 512 758 l 1
 147 758 l 2
 143 758 140 761 141 765 c 0
 142 769 146 772 150 772 c 0
EndSplineSet
EndChar

StartChar: bracketleft
Encoding: 91 91 58
Width: 576
VWidth: 186
Flags: W
HStem: 200 14<157 341.951> 758 14<247 433.952>
VStem: 142 292
LayerCount: 2
Back
Fore
SplineSet
243 772 m 0
 429 772 l 2
 433 772 435 769 434 765 c 0
 433 761 430 758 426 758 c 0
 247 758 l 1
 157 214 l 1
 336 214 l 2
 340 214 343 211 342 207 c 0
 341 203 337 200 333 200 c 0
 147 200 l 2
 143 200 141 203 142 207 c 2
 234 765 l 2
 235 769 239 772 243 772 c 0
EndSplineSet
EndChar

StartChar: backslash
Encoding: 92 92 59
Width: 576
VWidth: 186
Flags: W
HStem: 200 21G<479 482>
LayerCount: 2
Back
Fore
SplineSet
96 679 m 0
 98 679 99 678 100 677 c 2
 488 212 l 2
 489 211 489 209 489 207 c 0
 488 203 484 200 480 200 c 0
 478 200 477 201 476 202 c 2
 88 667 l 2
 87 668 87 670 87 672 c 0
 88 676 92 679 96 679 c 0
EndSplineSet
EndChar

StartChar: bracketright
Encoding: 93 93 60
Width: 576
VWidth: 186
Flags: W
HStem: 200 14<142.048 329> 758 14<234.049 419>
VStem: 142 292
LayerCount: 2
Back
Fore
SplineSet
243 772 m 0
 429 772 l 2
 433 772 435 769 434 765 c 2
 342 207 l 2
 341 203 337 200 333 200 c 2
 147 200 l 2
 143 200 141 203 142 207 c 0
 143 211 146 214 150 214 c 0
 329 214 l 1
 419 758 l 1
 240 758 l 2
 236 758 233 761 234 765 c 0
 235 769 239 772 243 772 c 0
EndSplineSet
EndChar

StartChar: asciicircum
Encoding: 94 94 61
Width: 576
VWidth: 186
Flags: W
HStem: 479 200
LayerCount: 2
Back
Fore
SplineSet
320 679 m 0
 322 679 324 678 325 677 c 2
 480 491 l 2
 481 490 481 488 481 486 c 0
 480 482 477 479 473 479 c 0
 471 479 469 480 468 481 c 2
 317 662 l 1
 106 481 l 2
 105 480 103 479 101 479 c 0
 97 479 94 482 95 486 c 0
 95 488 97 490 98 491 c 2
 315 677 l 2
 316 678 318 679 320 679 c 0
EndSplineSet
EndChar

StartChar: underscore
Encoding: 95 95 62
Width: 576
VWidth: 186
Flags: W
HStem: 107 14<-43.9524 619.952>
LayerCount: 2
Back
Fore
SplineSet
-37 121 m 0
 615 121 l 2
 619 121 621 118 620 114 c 0
 619 110 617 107 613 107 c 0
 -39 107 l 2
 -43 107 -45 110 -44 114 c 0
 -43 118 -41 121 -37 121 c 0
EndSplineSet
EndChar

StartChar: grave
Encoding: 96 96 63
Width: 576
VWidth: 186
Flags: W
HStem: 572 200
VStem: 251 74
LayerCount: 2
Back
Fore
SplineSet
259 772 m 0
 261 772 263 770 264 768 c 2
 325 582 l 2
 325 581 327 580 327 579 c 0
 326 575 321 572 317 572 c 0
 315 572 313 574 312 576 c 2
 251 762 l 2
 251 763 249 764 249 765 c 0
 250 769 255 772 259 772 c 0
EndSplineSet
EndChar

StartChar: a
Encoding: 97 97 64
Width: 576
VWidth: 186
Flags: W
HStem: 200 14<191 278> 479 14<236 323> 572 14<149.048 338>
LayerCount: 2
Back
Fore
SplineSet
157 586 m 0
 343 586 l 2
 345 586 347 585 348 584 c 2
 426 491 l 2
 427 490 427 488 427 486 c 2
 411 394 l 2
 411 393 l 0
 411 392 l 2
 396 303 l 1
 472 212 l 2
 473 211 473 209 473 207 c 0
 472 203 469 200 465 200 c 0
 463 200 461 201 460 202 c 2
 387 290 l 1
 284 202 l 2
 283 201 281 200 279 200 c 0
 186 200 l 2
 184 200 182 201 181 202 c 2
 104 295 l 2
 103 296 103 298 103 300 c 2
 118 393 l 2
 118 395 120 397 121 398 c 2
 230 491 l 2
 231 492 233 493 235 493 c 0
 328 493 l 2
 330 493 332 492 333 491 c 2
 400 410 l 1
 412 483 l 1
 338 572 l 1
 155 572 l 2
 151 572 148 575 149 579 c 0
 150 583 153 586 157 586 c 0
236 479 m 1
 132 390 l 1
 117 303 l 1
 191 214 l 1
 278 214 l 1
 382 303 l 1
 397 390 l 1
 323 479 l 1
 236 479 l 1
EndSplineSet
EndChar

StartChar: b
Encoding: 98 98 65
Width: 576
VWidth: 186
Flags: W
HStem: 200 14<134 310> 572 14<196 370> 752 20G<217 221>
LayerCount: 2
Back
Fore
SplineSet
219 772 m 0
 223 772 227 769 226 765 c 0
 196 586 l 1
 374 586 l 2
 376 586 379 585 380 584 c 2
 456 491 l 2
 457 490 457 488 457 486 c 2
 426 300 l 2
 426 298 424 296 423 295 c 2
 316 202 l 2
 315 201 312 200 310 200 c 0
 124 200 l 2
 120 200 118 203 119 207 c 2
 181 578 l 2
 181 579 l 0
 181 580 l 2
 212 765 l 2
 213 769 215 772 219 772 c 0
194 572 m 1
 134 214 l 1
 310 214 l 1
 413 303 l 1
 443 483 l 1
 370 572 l 1
 194 572 l 1
EndSplineSet
EndChar

StartChar: c
Encoding: 99 99 66
Width: 576
VWidth: 186
Flags: W
HStem: 200 14<214 302> 572 14<274 362>
VStem: 128 320
LayerCount: 2
Back
Fore
SplineSet
274 586 m 0
 366 586 l 2
 368 586 371 585 372 584 c 2
 448 491 l 2
 449 490 449 488 449 486 c 0
 448 482 446 479 442 479 c 0
 440 479 438 480 437 481 c 2
 362 572 l 1
 274 572 l 1
 171 483 l 1
 141 303 l 1
 214 214 l 1
 302 214 l 1
 407 305 l 2
 408 306 412 307 414 307 c 0
 418 307 419 304 418 300 c 0
 418 298 417 296 416 295 c 2
 308 202 l 2
 307 201 304 200 302 200 c 0
 210 200 l 2
 208 200 205 201 204 202 c 2
 128 295 l 2
 127 296 126 298 126 300 c 2
 157 486 l 2
 157 488 159 490 160 491 c 2
 268 584 l 2
 269 585 272 586 274 586 c 0
EndSplineSet
EndChar

StartChar: d
Encoding: 100 100 67
Width: 576
VWidth: 186
Flags: W
HStem: 200 14<191 367> 572 14<251 427> 752 20G<466 470>
LayerCount: 2
Back
Fore
SplineSet
468 772 m 0
 472 772 474 769 473 765 c 0
 442 580 l 2
 442 579 l 0
 442 578 l 2
 380 207 l 2
 379 203 377 200 373 200 c 2
 187 200 l 2
 185 200 182 201 181 202 c 2
 104 295 l 2
 103 296 103 298 103 300 c 2
 134 486 l 2
 134 488 136 490 137 491 c 2
 245 584 l 2
 246 585 249 586 251 586 c 0
 429 586 l 1
 459 765 l 2
 460 769 464 772 468 772 c 0
251 572 m 1
 148 483 l 1
 118 303 l 1
 191 214 l 1
 367 214 l 1
 427 572 l 1
 251 572 l 1
EndSplineSet
EndChar

StartChar: e
Encoding: 101 101 68
Width: 576
VWidth: 186
Flags: W
HStem: 200 14<214 402.952> 386 14<157 421> 572 14<274 362>
VStem: 128 320
CounterMasks: 1 e0
LayerCount: 2
Back
Fore
SplineSet
274 586 m 0
 366 586 l 2
 368 586 371 585 372 584 c 2
 448 491 l 2
 449 490 449 488 449 486 c 2
 434 393 l 2
 433 389 431 386 427 386 c 2
 155 386 l 1
 141 303 l 1
 214 214 l 1
 398 214 l 2
 402 214 404 211 403 207 c 0
 402 203 400 200 396 200 c 0
 210 200 l 2
 208 200 205 201 204 202 c 2
 128 295 l 2
 127 296 126 298 126 300 c 2
 142 392 l 2
 142 393 l 0
 142 394 l 2
 157 486 l 2
 157 488 159 490 160 491 c 2
 268 584 l 2
 269 585 272 586 274 586 c 0
274 572 m 1
 171 483 l 1
 157 400 l 1
 421 400 l 1
 435 483 l 1
 362 572 l 1
 274 572 l 1
EndSplineSet
EndChar

StartChar: f
Encoding: 102 102 69
Width: 576
VWidth: 186
Flags: W
HStem: 200 21G<215 219> 479 14<165.048 257 273 364.952> 758 14<317 410.952>
VStem: 165 246
LayerCount: 2
Back
Fore
SplineSet
312 772 m 0
 405 772 l 2
 409 772 412 769 411 765 c 0
 410 761 407 758 403 758 c 0
 317 758 l 1
 273 493 l 1
 359 493 l 2
 363 493 366 490 365 486 c 0
 364 482 361 479 357 479 c 0
 271 479 l 1
 225 207 l 2
 224 203 221 200 217 200 c 0
 213 200 210 203 211 207 c 0
 257 479 l 1
 171 479 l 2
 167 479 164 482 165 486 c 0
 166 490 169 493 173 493 c 0
 259 493 l 1
 304 765 l 2
 305 769 308 772 312 772 c 0
EndSplineSet
EndChar

StartChar: g
Encoding: 103 103 70
Width: 576
VWidth: 186
Flags: W
HStem: 107 14<206 294> 293 14<237 325> 572 14<282 370>
LayerCount: 2
Back
Fore
SplineSet
282 586 m 0
 374 586 l 2
 376 586 379 585 380 584 c 2
 456 491 l 2
 457 490 457 488 457 486 c 2
 442 394 l 2
 442 393 l 0
 442 392 l 2
 411 207 l 2
 411 205 409 203 408 202 c 2
 300 109 l 2
 299 108 296 107 294 107 c 2
 202 107 l 2
 200 107 197 108 196 109 c 2
 120 202 l 2
 119 203 119 205 119 207 c 0
 120 211 122 214 126 214 c 0
 128 214 131 213 132 212 c 2
 206 121 l 1
 294 121 l 1
 397 210 l 1
 425 376 l 1
 331 295 l 2
 330 294 327 293 325 293 c 2
 233 293 l 2
 231 293 228 294 227 295 c 2
 151 388 l 2
 150 389 150 391 150 393 c 2
 165 486 l 2
 165 488 167 490 168 491 c 2
 276 584 l 2
 277 585 280 586 282 586 c 0
282 572 m 1
 179 483 l 1
 164 396 l 1
 237 307 l 1
 325 307 l 1
 428 396 l 1
 443 483 l 1
 370 572 l 1
 282 572 l 1
EndSplineSet
EndChar

StartChar: h
Encoding: 104 104 71
Width: 576
VWidth: 186
Flags: W
HStem: 200 21G<122 126 402 406> 572 14<196 370> 752 20G<217 221>
LayerCount: 2
Back
Fore
SplineSet
219 772 m 0
 223 772 227 769 226 765 c 0
 196 586 l 1
 374 586 l 2
 376 586 379 585 380 584 c 2
 456 491 l 2
 457 490 457 488 457 486 c 2
 411 207 l 2
 410 203 408 200 404 200 c 0
 400 200 396 203 397 207 c 0
 443 483 l 1
 370 572 l 1
 194 572 l 1
 133 207 l 2
 132 203 128 200 124 200 c 0
 120 200 118 203 119 207 c 0
 181 578 l 2
 181 579 l 0
 181 580 l 2
 212 765 l 2
 213 769 215 772 219 772 c 0
EndSplineSet
EndChar

StartChar: i
Encoding: 105 105 72
Width: 576
VWidth: 186
Flags: W
HStem: 200 21G<246 250>
VStem: 242 92
LayerCount: 2
Back
Fore
SplineSet
328 679 m 0
 332 679 335 676 334 672 c 0
 318 579 l 2
 317 575 314 572 310 572 c 0
 306 572 303 575 304 579 c 0
 320 672 l 2
 321 676 324 679 328 679 c 0
297 493 m 0
 301 493 304 490 303 486 c 0
 256 207 l 2
 255 203 252 200 248 200 c 0
 244 200 241 203 242 207 c 0
 289 486 l 2
 290 490 293 493 297 493 c 0
EndSplineSet
EndChar

StartChar: j
Encoding: 106 106 73
Width: 576
VWidth: 186
Flags: W
HStem: 107 14<191 279>
LayerCount: 2
Back
Fore
SplineSet
468 679 m 0
 472 679 474 676 473 672 c 0
 457 579 l 2
 456 575 454 572 450 572 c 0
 446 572 442 575 443 579 c 0
 459 672 l 2
 460 676 464 679 468 679 c 0
437 493 m 0
 441 493 443 490 442 486 c 0
 395 207 l 2
 395 205 393 203 392 202 c 2
 285 109 l 2
 284 108 281 107 279 107 c 2
 187 107 l 2
 185 107 182 108 181 109 c 2
 104 202 l 2
 103 203 103 205 103 207 c 0
 104 211 106 214 110 214 c 0
 112 214 115 213 116 212 c 2
 191 121 l 1
 279 121 l 1
 382 210 l 1
 428 486 l 2
 429 490 433 493 437 493 c 0
EndSplineSet
EndChar

StartChar: k
Encoding: 107 107 74
Width: 576
VWidth: 186
Flags: W
HStem: 200 21G<114 118 395 398> 566 20G<459 462> 752 20G<209 213>
LayerCount: 2
Back
Fore
SplineSet
211 772 m 0
 215 772 219 769 218 765 c 0
 143 317 l 1
 237 397 l 2
 237 398 238 399 239 399 c 2
 454 584 l 2
 455 585 458 586 460 586 c 0
 464 586 466 583 465 579 c 0
 465 577 463 575 462 574 c 2
 252 393 l 1
 402 212 l 2
 403 211 403 209 403 207 c 0
 402 203 400 200 396 200 c 0
 394 200 391 201 390 202 c 2
 240 383 l 1
 140 297 l 1
 125 207 l 2
 124 203 120 200 116 200 c 0
 112 200 110 203 111 207 c 0
 126 299 l 2
 126 300 l 0
 127 301 l 2
 204 765 l 2
 205 769 207 772 211 772 c 0
EndSplineSet
EndChar

StartChar: l
Encoding: 108 108 75
Width: 576
VWidth: 186
Flags: W
HStem: 200 14<249 341.951> 752 20G<334 338>
VStem: 234 107
LayerCount: 2
Back
Fore
SplineSet
336 772 m 0
 340 772 342 769 341 765 c 0
 249 214 l 1
 335 214 l 2
 339 214 343 211 342 207 c 0
 341 203 337 200 333 200 c 0
 241 200 l 2
 237 200 233 203 234 207 c 2
 327 765 l 2
 328 769 332 772 336 772 c 0
EndSplineSet
EndChar

StartChar: m
Encoding: 109 109 76
Width: 576
VWidth: 186
Flags: W
HStem: 200 21G<76 80 262 266 448 452> 566 20G<140 144 234 236 420 422>
LayerCount: 2
Back
Fore
SplineSet
142 586 m 0
 146 586 149 583 148 579 c 0
 135 503 l 1
 230 584 l 2
 231 585 233 586 235 586 c 0
 237 586 239 585 240 584 c 2
 313 496 l 1
 416 584 l 2
 417 585 419 586 421 586 c 0
 423 586 425 585 426 584 c 2
 503 491 l 2
 504 490 504 488 504 486 c 2
 458 207 l 2
 457 203 454 200 450 200 c 0
 446 200 443 203 444 207 c 0
 490 483 l 1
 418 569 l 1
 318 483 l 1
 272 207 l 2
 271 203 268 200 264 200 c 0
 260 200 257 203 258 207 c 0
 304 483 l 1
 232 569 l 1
 132 483 l 1
 86 207 l 2
 85 203 82 200 78 200 c 0
 74 200 71 203 72 207 c 0
 118 485 l 2
 118 486 l 0
 118 487 l 2
 134 579 l 2
 135 583 138 586 142 586 c 0
EndSplineSet
EndChar

StartChar: n
Encoding: 110 110 77
Width: 576
VWidth: 186
Flags: W
HStem: 200 21G<122 126 402 406> 572 14<282 370>
LayerCount: 2
Back
Fore
SplineSet
282 586 m 0
 374 586 l 2
 376 586 379 585 380 584 c 2
 456 491 l 2
 457 490 457 488 457 486 c 2
 411 207 l 2
 410 203 408 200 404 200 c 0
 400 200 396 203 397 207 c 0
 443 483 l 1
 370 572 l 1
 282 572 l 1
 179 483 l 1
 133 207 l 2
 132 203 128 200 124 200 c 0
 120 200 118 203 119 207 c 0
 165 486 l 1
 181 579 l 2
 182 583 184 586 188 586 c 0
 192 586 196 583 195 579 c 2
 182 503 l 1
 276 584 l 2
 277 585 280 586 282 586 c 0
EndSplineSet
EndChar

StartChar: o
Encoding: 111 111 78
Width: 576
VWidth: 186
Flags: W
HStem: 200 14<214 302> 572 14<274 362>
VStem: 128 321
LayerCount: 2
Back
Fore
SplineSet
274 586 m 0
 366 586 l 2
 368 586 371 585 372 584 c 2
 449 491 l 2
 450 490 450 488 450 486 c 2
 419 300 l 2
 419 298 417 296 416 295 c 2
 308 202 l 2
 307 201 304 200 302 200 c 0
 210 200 l 2
 208 200 205 201 204 202 c 2
 128 294 l 2
 127 295 126 296 126 297 c 0
 126 298 l 0
 126 299 127 299 127 300 c 0
 127 301 l 2
 158 486 l 2
 158 488 160 490 161 491 c 2
 268 584 l 2
 269 585 272 586 274 586 c 0
274 572 m 1
 171 483 l 1
 141 303 l 1
 214 214 l 1
 302 214 l 1
 405 303 l 1
 435 483 l 1
 362 572 l 1
 274 572 l 1
EndSplineSet
EndChar

StartChar: p
Encoding: 112 112 79
Width: 576
VWidth: 186
Flags: W
HStem: 107 21G<114 118> 293 14<157 333> 572 14<201 377>
LayerCount: 2
Back
Fore
SplineSet
196 586 m 0
 382 586 l 2
 384 586 386 585 387 584 c 2
 464 491 l 2
 465 490 465 488 465 486 c 2
 450 393 l 2
 450 391 448 389 447 388 c 2
 339 295 l 2
 338 294 335 293 333 293 c 2
 155 293 l 1
 125 114 l 2
 124 110 120 107 116 107 c 0
 112 107 110 110 111 114 c 0
 142 299 l 2
 142 300 l 0
 142 301 l 2
 189 579 l 2
 190 583 192 586 196 586 c 0
201 572 m 1
 157 307 l 1
 333 307 l 1
 436 396 l 1
 451 483 l 1
 377 572 l 1
 201 572 l 1
EndSplineSet
EndChar

StartChar: q
Encoding: 113 113 80
Width: 576
VWidth: 186
Flags: W
HStem: 107 14<366 457.952> 293 14<207 381> 572 14<251 427>
LayerCount: 2
Back
Fore
SplineSet
250 586 m 0
 436 586 l 2
 440 586 443 583 442 579 c 2
 396 301 l 2
 396 300 l 0
 396 299 l 2
 366 121 l 1
 452 121 l 2
 456 121 459 118 458 114 c 0
 457 110 454 107 450 107 c 0
 357 107 l 2
 353 107 350 110 351 114 c 2
 381 293 l 1
 202 293 l 2
 200 293 198 294 197 295 c 2
 119 388 l 2
 118 389 118 391 118 393 c 2
 134 486 l 2
 134 488 136 490 137 491 c 2
 245 584 l 2
 246 585 248 586 250 586 c 0
251 572 m 1
 147 483 l 1
 133 396 l 1
 207 307 l 1
 383 307 l 1
 427 572 l 1
 251 572 l 1
EndSplineSet
EndChar

StartChar: r
Encoding: 114 114 81
Width: 576
VWidth: 186
Flags: W
HStem: 200 21G<177 181> 572 14<337 433.952>
VStem: 143 291
LayerCount: 2
Back
Fore
SplineSet
149 586 m 0
 151 586 154 585 155 584 c 2
 228 496 l 1
 331 584 l 2
 332 585 333 586 335 586 c 0
 429 586 l 2
 433 586 435 583 434 579 c 0
 433 575 431 572 427 572 c 0
 337 572 l 1
 232 483 l 1
 186 207 l 2
 185 203 183 200 179 200 c 0
 175 200 171 203 172 207 c 0
 218 483 l 1
 143 574 l 2
 142 575 142 577 142 579 c 0
 143 583 145 586 149 586 c 0
EndSplineSet
EndChar

StartChar: s
Encoding: 115 115 82
Width: 576
VWidth: 186
Flags: W
HStem: 200 14<214 302> 386 14<245 331> 572 14<274 362>
VStem: 128 320
CounterMasks: 1 e0
LayerCount: 2
Back
Fore
SplineSet
274 586 m 0
 366 586 l 2
 368 586 371 585 372 584 c 2
 448 491 l 2
 449 490 449 488 449 486 c 0
 448 482 446 479 442 479 c 0
 440 479 438 480 437 481 c 2
 362 572 l 1
 274 572 l 1
 173 486 l 1
 245 400 l 1
 335 400 l 2
 337 400 340 399 341 398 c 2
 417 305 l 2
 418 304 418 302 418 300 c 0
 418 298 417 296 416 295 c 2
 308 202 l 2
 307 201 304 200 302 200 c 0
 210 200 l 2
 208 200 205 201 204 202 c 2
 128 295 l 2
 127 296 126 298 126 300 c 0
 127 304 130 307 134 307 c 0
 136 307 138 306 139 305 c 2
 214 214 l 1
 302 214 l 1
 402 300 l 1
 331 386 l 1
 241 386 l 2
 239 386 236 387 235 388 c 2
 159 481 l 2
 158 482 157 484 157 486 c 0
 157 488 159 490 160 491 c 2
 268 584 l 2
 269 585 272 586 274 586 c 0
EndSplineSet
EndChar

StartChar: t
Encoding: 116 116 83
Width: 576
VWidth: 186
Flags: W
HStem: 200 14<234 325.952> 572 14<188.048 280 296 387.952> 752 20G<318 322>
VStem: 188 200
LayerCount: 2
Back
Fore
SplineSet
320 772 m 0
 324 772 327 769 326 765 c 0
 296 586 l 1
 382 586 l 2
 386 586 389 583 388 579 c 0
 387 575 384 572 380 572 c 0
 294 572 l 1
 234 214 l 1
 320 214 l 2
 324 214 327 211 326 207 c 0
 325 203 322 200 318 200 c 0
 225 200 l 2
 221 200 218 203 219 207 c 2
 280 572 l 1
 194 572 l 2
 190 572 187 575 188 579 c 0
 189 583 192 586 196 586 c 0
 282 586 l 1
 312 765 l 2
 313 769 316 772 320 772 c 0
EndSplineSet
EndChar

StartChar: u
Encoding: 117 117 84
Width: 576
VWidth: 186
Flags: W
HStem: 200 14<126 390> 566 20G<178 182 458 462>
LayerCount: 2
Back
Fore
SplineSet
180 586 m 0
 184 586 188 583 187 579 c 0
 126 214 l 1
 390 214 l 1
 451 579 l 2
 452 583 456 586 460 586 c 0
 464 586 466 583 465 579 c 0
 403 207 l 2
 402 203 400 200 396 200 c 2
 116 200 l 2
 112 200 110 203 111 207 c 2
 173 579 l 2
 174 583 176 586 180 586 c 0
EndSplineSet
EndChar

StartChar: v
Encoding: 118 118 85
Width: 576
VWidth: 186
Flags: W
HStem: 200 21G<239 241> 566 20G<117 121 489 493>
LayerCount: 2
Back
Fore
SplineSet
119 586 m 0
 123 586 125 583 124 579 c 0
 94 396 l 1
 243 217 l 1
 452 396 l 1
 482 579 l 2
 483 583 487 586 491 586 c 0
 495 586 497 583 496 579 c 0
 465 393 l 2
 465 391 464 389 463 388 c 2
 246 202 l 2
 245 201 242 200 240 200 c 0
 238 200 237 201 236 202 c 2
 81 388 l 2
 80 389 79 391 79 393 c 2
 110 579 l 2
 111 583 115 586 119 586 c 0
EndSplineSet
EndChar

StartChar: w
Encoding: 119 119 86
Width: 576
VWidth: 186
Flags: W
HStem: 200 21G<154 156 340 342> 566 20G<124 128 496 500>
LayerCount: 2
Back
Fore
SplineSet
126 586 m 0
 130 586 133 583 132 579 c 0
 86 303 l 1
 158 217 l 1
 258 303 l 1
 273 393 l 2
 274 397 277 400 281 400 c 0
 285 400 288 397 287 393 c 2
 272 303 l 1
 344 217 l 1
 444 303 l 1
 490 579 l 2
 491 583 494 586 498 586 c 0
 502 586 505 583 504 579 c 0
 458 300 l 2
 458 298 456 296 455 295 c 2
 346 202 l 2
 345 201 343 200 341 200 c 0
 339 200 337 201 336 202 c 2
 263 290 l 1
 160 202 l 2
 159 201 157 200 155 200 c 0
 153 200 151 201 150 202 c 2
 73 295 l 2
 72 296 72 298 72 300 c 2
 118 579 l 2
 119 583 122 586 126 586 c 0
EndSplineSet
EndChar

StartChar: x
Encoding: 120 120 87
Width: 576
VWidth: 186
Flags: W
HStem: 200 21G<68 71 441 444> 566 20G<132 135 505 508>
LayerCount: 2
Back
Fore
SplineSet
134 586 m 0
 136 586 138 585 139 584 c 2
 290 403 l 1
 501 584 l 2
 502 585 504 586 506 586 c 0
 510 586 513 583 512 579 c 0
 512 577 510 575 509 574 c 2
 298 393 l 1
 449 212 l 2
 450 211 450 209 450 207 c 0
 449 203 446 200 442 200 c 0
 440 200 438 201 437 202 c 2
 286 383 l 1
 75 202 l 2
 74 201 72 200 70 200 c 0
 66 200 63 203 64 207 c 0
 64 209 66 211 67 212 c 2
 278 393 l 1
 127 574 l 2
 126 575 126 577 126 579 c 0
 127 583 130 586 134 586 c 0
EndSplineSet
EndChar

StartChar: y
Encoding: 121 121 88
Width: 576
VWidth: 186
Flags: W
HStem: 107 21G<60 63> 566 20G<140 144 512 516>
LayerCount: 2
Back
Fore
SplineSet
142 586 m 0
 146 586 149 583 148 579 c 0
 133 489 l 1
 282 310 l 1
 491 489 l 1
 506 579 l 2
 507 583 510 586 514 586 c 0
 518 586 521 583 520 579 c 0
 504 486 l 2
 504 484 502 482 501 481 c 2
 286 296 l 2
 286 295 284 294 283 294 c 2
 67 109 l 2
 66 108 64 107 62 107 c 0
 58 107 55 110 56 114 c 0
 56 116 58 118 59 119 c 2
 270 300 l 1
 119 481 l 2
 118 482 118 484 118 486 c 0
 134 579 l 2
 135 583 138 586 142 586 c 0
EndSplineSet
EndChar

StartChar: z
Encoding: 122 122 89
Width: 576
VWidth: 186
Flags: W
HStem: 200 14<89 449.952> 572 14<126.048 487>
LayerCount: 2
Back
Fore
SplineSet
134 586 m 0
 506 586 l 2
 510 586 513 583 512 579 c 0
 512 577 510 575 509 574 c 2
 89 214 l 1
 444 214 l 2
 448 214 451 211 450 207 c 0
 449 203 446 200 442 200 c 0
 70 200 l 2
 66 200 63 203 64 207 c 0
 64 209 66 211 67 212 c 2
 487 572 l 1
 132 572 l 2
 128 572 125 575 126 579 c 0
 127 583 130 586 134 586 c 0
EndSplineSet
EndChar

StartChar: braceleft
Encoding: 123 123 90
Width: 576
VWidth: 186
Flags: W
HStem: 200 14<238 333.952> 758 14<329 426.952>
VStem: 150 277
LayerCount: 2
Back
Fore
SplineSet
328 772 m 1
 421 772 l 2
 425 772 428 769 427 765 c 0
 426 761 423 758 419 758 c 0
 329 758 l 1
 228 672 l 1
 302 584 l 2
 303 583 303 581 303 579 c 0
 303 577 301 575 300 574 c 2
 197 486 l 1
 271 398 l 2
 272 397 272 395 272 393 c 0
 272 391 270 389 269 388 c 2
 166 300 l 1
 238 214 l 1
 328 214 l 2
 332 214 335 211 334 207 c 0
 333 203 330 200 326 200 c 0
 233 200 l 2
 231 200 229 201 228 202 c 2
 150 295 l 2
 149 296 149 298 149 300 c 0
 149 302 151 304 152 305 c 2
 255 393 l 1
 181 481 l 2
 180 482 180 484 180 486 c 0
 180 488 182 490 183 491 c 2
 286 579 l 1
 212 667 l 2
 211 668 211 670 211 672 c 0
 211 674 213 676 214 677 c 2
 323 770 l 2
 324 771 326 772 328 772 c 1
EndSplineSet
EndChar

StartChar: bar
Encoding: 124 124 91
Width: 576
VWidth: 186
Flags: W
HStem: 107 21G<231 235> 752 20G<341 345>
VStem: 227 122
LayerCount: 2
Back
Fore
SplineSet
343 772 m 0
 347 772 350 769 349 765 c 0
 241 114 l 2
 240 110 237 107 233 107 c 0
 229 107 226 110 227 114 c 0
 335 765 l 2
 336 769 339 772 343 772 c 0
EndSplineSet
EndChar

StartChar: braceright
Encoding: 125 125 92
Width: 576
VWidth: 186
Flags: W
HStem: 200 14<149.048 247> 758 14<242.048 338>
VStem: 149 277
LayerCount: 2
Back
Fore
SplineSet
250 772 m 0
 343 772 l 2
 345 772 347 771 348 770 c 2
 426 677 l 2
 427 676 427 674 427 672 c 0
 427 670 425 668 424 667 c 2
 321 579 l 1
 395 491 l 2
 396 490 396 488 396 486 c 0
 396 484 394 482 393 481 c 2
 290 393 l 1
 364 305 l 2
 365 304 365 302 365 300 c 0
 365 298 363 296 362 295 c 2
 253 202 l 2
 252 201 250 200 248 200 c 0
 155 200 l 2
 151 200 148 203 149 207 c 0
 150 211 153 214 157 214 c 0
 247 214 l 1
 348 300 l 1
 274 388 l 2
 273 389 273 391 273 393 c 0
 273 395 275 397 276 398 c 2
 379 486 l 1
 305 574 l 2
 304 575 304 577 304 579 c 0
 304 581 306 583 307 584 c 2
 410 672 l 1
 338 758 l 1
 248 758 l 2
 244 758 241 761 242 765 c 0
 243 769 246 772 250 772 c 0
EndSplineSet
EndChar

StartChar: asciitilde
Encoding: 126 126 93
Width: 576
VWidth: 186
Flags: W
HStem: 386 200
LayerCount: 2
Back
Fore
SplineSet
212 586 m 0
 214 586 215 585 216 584 c 2
 367 403 l 1
 470 491 l 2
 471 492 473 493 475 493 c 0
 479 493 482 490 481 486 c 0
 481 484 479 482 478 481 c 2
 370 388 l 2
 369 387 366 386 364 386 c 0
 362 386 361 387 360 388 c 2
 209 569 l 1
 106 481 l 2
 105 480 103 479 101 479 c 0
 97 479 94 482 95 486 c 0
 95 488 97 490 98 491 c 2
 206 584 l 2
 207 585 210 586 212 586 c 0
EndSplineSet
EndChar

StartChar: sterling
Encoding: 163 163 94
Width: 576
VWidth: 186
Flags: W
HStem: 200 14<107 193 293 481.95> 479 14<234.049 327 343 433.952> 665 14<460 558.951>
LayerCount: 2
Back
Fore
SplineSet
460 679 m 0
 552 679 l 2
 556 679 560 676 559 672 c 0
 558 668 554 665 550 665 c 0
 460 665 l 1
 357 576 l 1
 343 493 l 1
 429 493 l 2
 433 493 435 490 434 486 c 0
 433 482 431 479 427 479 c 0
 341 479 l 1
 311 300 l 2
 311 298 309 296 308 295 c 2
 259 254 l 1
 293 214 l 1
 475 214 l 2
 479 214 483 211 482 207 c 0
 481 203 476 200 472 200 c 0
 286 200 l 2
 284 200 284 201 283 202 c 2
 248 244 l 1
 199 202 l 2
 198 201 196 200 194 200 c 0
 100 200 l 2
 98 200 98 201 97 202 c 2
 18 295 l 2
 17 296 17 298 17 300 c 0
 17 302 19 304 20 305 c 2
 129 398 l 2
 130 399 132 400 134 400 c 0
 136 400 138 399 139 398 c 2
 251 264 l 1
 298 303 l 1
 327 479 l 1
 241 479 l 2
 237 479 233 482 234 486 c 0
 235 490 239 493 243 493 c 0
 329 493 l 1
 344 579 l 2
 344 581 345 583 346 584 c 2
 454 677 l 2
 455 678 458 679 460 679 c 0
131 383 m 1
 35 300 l 1
 107 214 l 1
 193 214 l 1
 239 254 l 1
 131 383 l 1
EndSplineSet
EndChar

StartChar: pi
Encoding: 960 960 95
Width: 576
VWidth: 186
Flags: W
HStem: 200 21G<145 149 331 335> 479 14<201 373> 566 20G<490 493>
LayerCount: 2
Back
Fore
SplineSet
491 586 m 0
 495 586 497 583 496 579 c 0
 496 577 495 575 494 574 c 2
 388 483 l 1
 342 207 l 2
 341 203 337 200 333 200 c 0
 329 200 327 203 328 207 c 0
 373 479 l 1
 201 479 l 1
 156 207 l 2
 155 203 151 200 147 200 c 0
 143 200 141 203 142 207 c 0
 185 469 l 1
 91 388 l 2
 90 387 87 386 85 386 c 0
 81 386 79 389 80 393 c 0
 80 395 81 397 82 398 c 2
 191 491 l 1
 192 492 l 0
 193 492 l 0
 193 493 l 0
 194 493 l 0
 195 493 l 0
 196 493 l 2
 379 493 l 1
 485 584 l 2
 486 585 489 586 491 586 c 0
EndSplineSet
EndChar

StartChar: arrowleft
Encoding: 8592 8592 96
Width: 576
VWidth: 186
Flags: W
HStem: 479 14<73 527.951>
LayerCount: 2
Back
Fore
SplineSet
274 679 m 0
 278 679 280 676 279 672 c 0
 279 670 277 668 276 667 c 2
 73 493 l 1
 521 493 l 2
 525 493 529 490 528 486 c 0
 527 482 523 479 519 479 c 0
 71 479 l 1
 216 305 l 2
 217 304 217 302 217 300 c 0
 216 296 214 293 210 293 c 0
 208 293 205 294 204 295 c 2
 51 481 l 2
 49 482 48 484 48 486 c 0
 48 488 51 491 53 492 c 2
 268 677 l 2
 269 678 272 679 274 679 c 0
EndSplineSet
EndChar

StartChar: arrowup
Encoding: 8593 8593 97
Width: 576
VWidth: 186
Flags: W
HStem: 200 21G<238 242>
LayerCount: 2
Back
Fore
SplineSet
320 679 m 0
 322 679 325 679 326 677 c 2
 480 491 l 2
 481 490 481 488 481 486 c 0
 480 482 477 479 473 479 c 0
 471 479 469 480 468 481 c 2
 323 655 l 1
 249 207 l 2
 248 203 244 200 240 200 c 0
 236 200 234 203 235 207 c 0
 309 655 l 1
 106 481 l 2
 105 480 103 479 101 479 c 0
 97 479 94 482 95 486 c 0
 95 488 97 490 98 491 c 2
 315 677 l 2
 316 679 318 679 320 679 c 0
EndSplineSet
EndChar

StartChar: SF100000
Encoding: 9472 9472 98
Width: 576
VWidth: 186
Flags: W
HStem: 479 14<-43.9524 619.952>
LayerCount: 2
Back
Fore
SplineSet
-37 493 m 0
 615 493 l 2
 619 493 621 490 620 486 c 0
 619 482 617 479 613 479 c 0
 -39 479 l 2
 -43 479 -45 482 -44 486 c 0
 -43 490 -41 493 -37 493 c 0
EndSplineSet
EndChar

StartChar: SF110000
Encoding: 9474 9474 99
Width: 576
VWidth: 186
Flags: W
HStem: 107 21G<231 235> 752 20G<341 345>
VStem: 227 122
LayerCount: 2
Back
Fore
SplineSet
343 772 m 0
 347 772 350 769 349 765 c 0
 241 114 l 2
 240 110 237 107 233 107 c 0
 229 107 226 110 227 114 c 0
 335 765 l 2
 336 769 339 772 343 772 c 0
EndSplineSet
EndChar

StartChar: uni25B3
Encoding: 9651 9651 100
Width: 576
VWidth: 186
Flags: W
HStem: 200 14<27 551>
LayerCount: 2
Back
Fore
SplineSet
336 493 m 0
 338 493 339 492 340 491 c 2
 573 212 l 2
 574 211 574 209 574 207 c 0
 573 203 570 200 566 200 c 2
 9 200 l 2
 8 200 l 0
 5 200 3 202 2 204 c 0
 2 205 2 206 2 207 c 0
 2 209 4 212 6 213 c 2
 330 491 l 2
 331 492 334 493 336 493 c 0
333 476 m 1
 27 214 l 1
 551 214 l 1
 333 476 l 1
EndSplineSet
EndChar

StartChar: uni25FB
Encoding: 9723 9723 101
Width: 576
VWidth: 186
Flags: W
HStem: 200 14<17 469> 758 14<107 559>
LayerCount: 2
Back
Fore
SplineSet
104 772 m 1
 568 772 l 2
 572 772 576 769 575 765 c 2
 482 207 l 2
 481 203 476 200 472 200 c 2
 8 200 l 2
 6 200 4 201 3 202 c 0
 2 203 2 205 2 207 c 0
 2 208 l 2
 95 765 l 2
 96 769 100 772 104 772 c 1
107 758 m 1
 17 214 l 1
 469 214 l 1
 559 758 l 1
 107 758 l 1
EndSplineSet
EndChar

